<svg class="marks" width="270" height="255" version="1.1" xmlns="http://www.w3.org/2000/svg" xmlns:xlink="http://www.w3.org/1999/xlink"><g transform="translate(60,12)"><g class="mark-group"><g transform="translate(0,0)"><rect class="background" width="1" height="1" style="fill: none;"></rect><g class="mark-group root"><g transform="translate(0,0)"><rect class="background" width="200" height="200" style="fill: none;"></rect><g class="mark-group"><g transform="translate(0,200)"><rect class="background" width="0" height="0" style="pointer-events: none; fill: none;"></rect><g class="mark-rule" style="pointer-events: none;"><line transform="translate(0.5,-200)" x2="0" y2="200" style="fill: none; stroke: #000; stroke-opacity: 0.15; opacity: 1;"></line><line transform="translate(33.5,-200)" x2="0" y2="200" style="fill: none; stroke: #000; stroke-opacity: 0.15; opacity: 1;"></line><line transform="translate(67.5,-200)" x2="0" y2="200" style="fill: none; stroke: #000; stroke-opacity: 0.15; opacity: 1;"></line><line transform="translate(100.5,-200)" x2="0" y2="200" style="fill: none; stroke: #000; stroke-opacity: 0.15; opacity: 1;"></line><line transform="translate(133.5,-200)" x2="0" y2="200" style="fill: none; stroke: #000; stroke-opacity: 0.15; opacity: 1;"></line><line transform="translate(167.5,-200)" x2="0" y2="200" style="fill: none; stroke: #000; stroke-opacity: 0.15; opacity: 1;"></line><line transform="translate(200.5,-200)" x2="0" y2="200" style="fill: none; stroke: #000; stroke-opacity: 0.15; opacity: 1;"></line></g><g class="mark-rule" style="pointer-events: none;"><line transform="translate(0.5,0)" x2="0" y2="6" style="fill: none; stroke: #000; stroke-width: 1; opacity: 1;"></line><line transform="translate(33.5,0)" x2="0" y2="6" style="fill: none; stroke: #000; stroke-width: 1; opacity: 1;"></line><line transform="translate(67.5,0)" x2="0" y2="6" style="fill: none; stroke: #000; stroke-width: 1; opacity: 1;"></line><line transform="translate(100.5,0)" x2="0" y2="6" style="fill: none; stroke: #000; stroke-width: 1; opacity: 1;"></line><line transform="translate(133.5,0)" x2="0" y2="6" style="fill: none; stroke: #000; stroke-width: 1; opacity: 1;"></line><line transform="translate(167.5,0)" x2="0" y2="6" style="fill: none; stroke: #000; stroke-width: 1; opacity: 1;"></line><line transform="translate(200.5,0)" x2="0" y2="6" style="fill: none; stroke: #000; stroke-width: 1; opacity: 1;"></line></g><g class="mark-rule" style="pointer-events: none;"></g><g class="mark-text"><text text-anchor="middle" transform="translate(0.5,19)" style="font: 11px sans-serif; fill: #000; opacity: 1;">1</text><text text-anchor="middle" transform="translate(33.5,19)" style="font: 11px sans-serif; fill: #000; opacity: 1;">2</text><text text-anchor="middle" transform="translate(67.5,19)" style="font: 11px sans-serif; fill: #000; opacity: 1;">3</text><text text-anchor="middle" transform="translate(100.5,19)" style="font: 11px sans-serif; fill: #000; opacity: 1;">4</text><text text-anchor="middle" transform="translate(133.5,19)" style="font: 11px sans-serif; fill: #000; opacity: 1;">5</text><text text-anchor="middle" transform="translate(167.5,19)" style="font: 11px sans-serif; fill: #000; opacity: 1;">6</text><text text-anchor="middle" transform="translate(200.5,19)" style="font: 11px sans-serif; fill: #000; opacity: 1;">7</text></g><g class="mark-path" style="pointer-events: none;"><path transform="translate(0.5,0.5)" d="M0,6V0H200V6" style="fill: none; stroke: #000; stroke-width: 1;"></path></g><g class="mark-text"><text text-anchor="middle" transform="translate(100,35)" style="font: bold 11px sans-serif; fill: #000;">state</text></g></g></g><g class="mark-group"><g transform="translate(0,0)"><rect class="background" width="0" height="0" style="pointer-events: none; fill: none;"></rect><g class="mark-rule" style="pointer-events: none;"><line transform="translate(0,200.5)" x2="200" y2="0" style="fill: none; stroke: #000; stroke-opacity: 0.15; opacity: 1;"></line><line transform="translate(0,183.5)" x2="200" y2="0" style="fill: none; stroke: #000; stroke-opacity: 0.15; opacity: 1;"></line><line transform="translate(0,167.5)" x2="200" y2="0" style="fill: none; stroke: #000; stroke-opacity: 0.15; opacity: 1;"></line><line transform="translate(0,150.5)" x2="200" y2="0" style="fill: none; stroke: #000; stroke-opacity: 0.15; opacity: 1;"></line><line transform="translate(0,133.5)" x2="200" y2="0" style="fill: none; stroke: #000; stroke-opacity: 0.15; opacity: 1;"></line><line transform="translate(0,117.5)" x2="200" y2="0" style="fill: none; stroke: #000; stroke-opacity: 0.15; opacity: 1;"></line><line transform="translate(0,100.5)" x2="200" y2="0" style="fill: none; stroke: #000; stroke-opacity: 0.15; opacity: 1;"></line><line transform="translate(0,83.5)" x2="200" y2="0" style="fill: none; stroke: #000; stroke-opacity: 0.15; opacity: 1;"></line><line transform="translate(0,67.5)" x2="200" y2="0" style="fill: none; stroke: #000; stroke-opacity: 0.15; opacity: 1;"></line><line transform="translate(0,50.5)" x2="200" y2="0" style="fill: none; stroke: #000; stroke-opacity: 0.15; opacity: 1;"></line><line transform="translate(0,33.5)" x2="200" y2="0" style="fill: none; stroke: #000; stroke-opacity: 0.15; opacity: 1;"></line><line transform="translate(0,17.5)" x2="200" y2="0" style="fill: none; stroke: #000; stroke-opacity: 0.15; opacity: 1;"></line><line transform="translate(0,0.5)" x2="200" y2="0" style="fill: none; stroke: #000; stroke-opacity: 0.15; opacity: 1;"></line></g><g class="mark-rule" style="pointer-events: none;"><line transform="translate(-6,200.5)" x2="6" y2="0" style="fill: none; stroke: #000; stroke-width: 1; opacity: 1;"></line><line transform="translate(-6,183.5)" x2="6" y2="0" style="fill: none; stroke: #000; stroke-width: 1; opacity: 1;"></line><line transform="translate(-6,167.5)" x2="6" y2="0" style="fill: none; stroke: #000; stroke-width: 1; opacity: 1;"></line><line transform="translate(-6,150.5)" x2="6" y2="0" style="fill: none; stroke: #000; stroke-width: 1; opacity: 1;"></line><line transform="translate(-6,133.5)" x2="6" y2="0" style="fill: none; stroke: #000; stroke-width: 1; opacity: 1;"></line><line transform="translate(-6,117.5)" x2="6" y2="0" style="fill: none; stroke: #000; stroke-width: 1; opacity: 1;"></line><line transform="translate(-6,100.5)" x2="6" y2="0" style="fill: none; stroke: #000; stroke-width: 1; opacity: 1;"></line><line transform="translate(-6,83.5)" x2="6" y2="0" style="fill: none; stroke: #000; stroke-width: 1; opacity: 1;"></line><line transform="translate(-6,67.5)" x2="6" y2="0" style="fill: none; stroke: #000; stroke-width: 1; opacity: 1;"></line><line transform="translate(-6,50.5)" x2="6" y2="0" style="fill: none; stroke: #000; stroke-width: 1; opacity: 1;"></line><line transform="translate(-6,33.5)" x2="6" y2="0" style="fill: none; stroke: #000; stroke-width: 1; opacity: 1;"></line><line transform="translate(-6,17.5)" x2="6" y2="0" style="fill: none; stroke: #000; stroke-width: 1; opacity: 1;"></line><line transform="translate(-6,0.5)" x2="6" y2="0" style="fill: none; stroke: #000; stroke-width: 1; opacity: 1;"></line></g><g class="mark-rule" style="pointer-events: none;"></g><g class="mark-text"><text text-anchor="end" transform="translate(-9,203.5)" style="font: 11px sans-serif; fill: #000; opacity: 1;">0.0</text><text text-anchor="end" transform="translate(-9,186.5)" style="font: 11px sans-serif; fill: #000; opacity: 1;">0.020</text><text text-anchor="end" transform="translate(-9,170.5)" style="font: 11px sans-serif; fill: #000; opacity: 1;">0.040</text><text text-anchor="end" transform="translate(-9,153.5)" style="font: 11px sans-serif; fill: #000; opacity: 1;">0.060</text><text text-anchor="end" transform="translate(-9,136.5)" style="font: 11px sans-serif; fill: #000; opacity: 1;">0.080</text><text text-anchor="end" transform="translate(-9,120.5)" style="font: 11px sans-serif; fill: #000; opacity: 1;">0.10</text><text text-anchor="end" transform="translate(-9,103.5)" style="font: 11px sans-serif; fill: #000; opacity: 1;">0.12</text><text text-anchor="end" transform="translate(-9,86.5)" style="font: 11px sans-serif; fill: #000; opacity: 1;">0.14</text><text text-anchor="end" transform="translate(-9,70.5)" style="font: 11px sans-serif; fill: #000; opacity: 1;">0.16</text><text text-anchor="end" transform="translate(-9,53.5)" style="font: 11px sans-serif; fill: #000; opacity: 1;">0.18</text><text text-anchor="end" transform="translate(-9,36.5)" style="font: 11px sans-serif; fill: #000; opacity: 1;">0.20</text><text text-anchor="end" transform="translate(-9,20.5)" style="font: 11px sans-serif; fill: #000; opacity: 1;">0.22</text><text text-anchor="end" transform="translate(-9,3.5)" style="font: 11px sans-serif; fill: #000; opacity: 1;">0.24</text></g><g class="mark-path" style="pointer-events: none;"><path transform="translate(0.5,0.5)" d="M-6,0H0V200H-6" style="fill: none; stroke: #000; stroke-width: 1;"></path></g><g class="mark-text"><text text-anchor="middle" transform="translate(-48,100) rotate(-90) translate(0,3)" style="font: bold 11px sans-serif; fill: #000;">density</text></g></g></g><g class="mark-line marks"><path d="M186,37L185,33L183,29L181,25L179,22L178,19L176,16L174,14L173,12L171,11L169,10L167,9L166,8L164,8L162,8L160,9L159,10L157,11L155,12L153,14L152,16L150,19L148,22L146,25L145,28L143,32L141,37L139,41L138,46L136,51L134,57L132,63L131,69L129,76L127,83L125,90L124,98L122,100L120,102L118,104L117,106L115,108L113,111L111,114L110,117L108,120L106,123L104,127L103,130L101,134L99,138L97,142L96,147L94,151L92,156L91,161L89,166L87,171L85,176L84,182L82,187L80,193L78,199L77,200L75,200L73,194L71,188L70,182L68,177L66,171L64,166L63,161L61,156L59,152L57,147L56,143L54,139L52,135L50,131L49,127L47,124L45,120L43,117L42,114L40,111L38,109L36,106L35,104L33,102L31,100L29,98L28,96L26,95L24,94L22,93L21,92L19,91L17,90L15,90L14,90L12,90" style="fill: none; stroke: #4682b4; stroke-width: 2;"></path></g></g></g></g></g></g></svg>